HIERARCHY
ROOT root
{
	OFFSET 0.000000 0.000000 0.000000
	CHANNELS 6 Xposition Yposition Zposition Zrotation Yrotation Xrotation
	JOINT lhip
	{
		OFFSET 0.058581 -0.082280 -0.017664
		CHANNELS 3 Zrotation Yrotation Xrotation
		JOINT lknee
		{
			OFFSET 0.043451 -0.386469 0.008037
			CHANNELS 3 Zrotation Yrotation Xrotation
			JOINT lankle
			{
				OFFSET -0.014790 -0.426874 -0.037428
				CHANNELS 3 Zrotation Yrotation Xrotation
				JOINT ltoe
				{
					OFFSET 0.041054 -0.060286 0.122042
					CHANNELS 3 Zrotation Yrotation Xrotation
					End Site
					{
						OFFSET 0.000000 0.000000 0.000000
					}
				}
			}
		}
	}
	JOINT rhip
	{
		OFFSET -0.060310 -0.090513 -0.013543
		CHANNELS 3 Zrotation Yrotation Xrotation
		JOINT rknee
		{
			OFFSET -0.043257 -0.383688 -0.004843
			CHANNELS 3 Zrotation Yrotation Xrotation
			JOINT rankle
			{
				OFFSET 0.019056 -0.420046 -0.034562
				CHANNELS 3 Zrotation Yrotation Xrotation
				JOINT rtoe
				{
					OFFSET -0.034840 -0.062106 0.130323
					CHANNELS 3 Zrotation Yrotation Xrotation
					End Site
					{
						OFFSET 0.000000 0.000000 0.000000
					}
				}
			}
		}
	}
	JOINT lowerback
	{
		OFFSET 0.004439 0.124404 -0.038385
		CHANNELS 3 Zrotation Yrotation Xrotation
		JOINT upperback
		{
			OFFSET 0.004488 0.137956 0.026820
			CHANNELS 3 Zrotation Yrotation Xrotation
			JOINT chest
			{
				OFFSET -0.002265 0.056032 0.002855
				CHANNELS 3 Zrotation Yrotation Xrotation
				JOINT lowerneck
				{
					OFFSET -0.013390 0.211636 -0.033468
					CHANNELS 3 Zrotation Yrotation Xrotation
					JOINT upperneck
					{
						OFFSET 0.010113 0.088937 0.050410
						CHANNELS 3 Zrotation Yrotation Xrotation
						End Site
						{
							OFFSET 0.000000 0.000000 0.000000
						}
					}
				}
				JOINT lclavicle
				{
					OFFSET 0.071702 0.114000 -0.018898
					CHANNELS 3 Zrotation Yrotation Xrotation
					JOINT lshoulder
					{
						OFFSET 0.122921 0.045205 -0.019046
						CHANNELS 3 Zrotation Yrotation Xrotation
						JOINT lelbow
						{
							OFFSET 0.255332 -0.015649 -0.022946
							CHANNELS 3 Zrotation Yrotation Xrotation
							JOINT lwrist
							{
								OFFSET 0.265709 0.012698 -0.007375
								CHANNELS 3 Zrotation Yrotation Xrotation
								End Site
								{
									OFFSET 0.000000 0.000000 0.000000
								}
							}
						}
					}
				}
				JOINT rclavicle
				{
					OFFSET -0.082954 0.112472 -0.023707
					CHANNELS 3 Zrotation Yrotation Xrotation
					JOINT rshoulder
					{
						OFFSET -0.113228 0.046853 -0.008472
						CHANNELS 3 Zrotation Yrotation Xrotation
						JOINT relbow
						{
							OFFSET -0.260127 -0.014369 -0.031269
							CHANNELS 3 Zrotation Yrotation Xrotation
							JOINT rwrist
							{
								OFFSET -0.269108 0.006794 -0.006027
								CHANNELS 3 Zrotation Yrotation Xrotation
								End Site
								{
									OFFSET 0.000000 0.000000 0.000000
								}
							}
						}
					}
				}
			}
		}
	}
}
MOTION
Frames: 17
Frame Time: 0.033333
0.899441 0.337601 0.967476 79.270956 -0.943253 102.187404 -8.081070 -10.562689 -10.174129 -3.588814 -14.391887 23.984264 4.990051 27.628687 -39.040922 0.000000 -0.000000 0.000000 3.239413 5.539792 -42.694159 -1.417483 -0.216089 2.950353 1.557279 -15.040157 39.052512 0.000000 -0.000000 0.000000 -3.292985 -1.237779 4.969614 0.792107 -3.608746 -1.959347 -2.106325 -1.440980 -5.302173 -2.226167 -9.101427 4.423174 18.229811 8.236112 10.979251 -28.218455 -13.094929 -7.839343 -25.200254 -39.083342 -4.554633 16.290033 -6.060290 -63.414196 -24.396293 -0.740562 -16.702367 13.810141 -2.133880 -11.726864 34.752999 2.863147 0.759746 -6.908148 -9.326742 -5.758293 20.284722 -15.987335 10.430841 
0.870237 0.344445 0.974950 76.727187 -1.258058 102.665996 -8.120977 -9.824326 -10.760895 -2.734299 -12.672032 19.347539 4.805731 27.724713 -37.244824 0.000000 -0.000000 0.000000 3.295485 3.660801 -42.311582 -1.148148 -0.852228 -1.317405 8.326367 -14.277497 44.282253 0.000000 -0.000000 0.000000 -4.311310 -1.523052 5.483920 1.292850 -4.057446 -2.579853 -2.095510 -1.702622 -4.556440 -2.036039 -12.853038 4.854021 19.000841 5.234835 10.899896 -28.876039 -12.228548 -6.716492 -27.573151 -37.441779 -3.809047 15.486834 -3.118187 -64.080282 -19.330420 -2.318257 -17.451719 15.396112 -1.317939 -11.596976 35.434733 4.875585 -0.510869 -6.637111 -10.748871 -8.246046 14.882762 -15.420380 13.804111 
0.842319 0.350741 0.980001 74.687510 -1.480316 102.581009 -8.285824 -9.063483 -11.411378 -1.957588 -10.849759 16.275728 5.968012 27.595039 -35.316149 0.000000 -0.000000 0.000000 3.100821 2.646475 -42.193591 -1.085764 -0.019502 -0.919245 9.179973 -14.239664 45.932356 0.000000 -0.000000 0.000000 -5.165082 -1.821138 6.613711 1.777222 -4.763527 -3.398193 -1.811561 -2.245361 -3.444582 -1.448846 -16.419565 4.690437 19.125974 2.398276 11.099743 -28.719085 -12.314647 -6.194819 -31.019625 -35.801639 -2.113175 15.053820 -0.370140 -64.705818 -17.019266 -1.791495 -20.535134 16.470143 -0.675004 -12.748433 37.012698 6.833699 -0.219324 -6.874671 -12.624408 -9.736111 11.515327 -15.450075 14.342658 
0.810952 0.358738 0.985777 71.669945 -0.896374 101.975833 -7.584606 -6.902028 -12.007138 -1.345955 -7.750628 13.688945 5.889546 25.577349 -32.907807 0.000000 -0.000000 0.000000 3.199960 3.053379 -40.703959 -1.651758 -2.234476 -0.635668 9.745873 -13.960421 44.526130 0.000000 -0.000000 0.000000 -4.724979 -2.281156 8.714223 2.056771 -5.102130 -4.485717 -1.644971 -2.950655 -2.605203 -0.410851 -19.819445 5.280563 18.964294 -2.656222 10.801139 -28.888939 -11.899045 -6.104289 -36.413430 -34.741823 0.794377 14.896478 4.065521 -63.271745 -17.037483 -3.489221 -20.161016 17.237466 0.277329 -13.795083 40.082926 8.865052 0.634663 -7.457818 -14.041580 -12.787383 10.251584 -13.566510 11.259581 
0.793783 0.363547 0.989448 69.072551 -0.696976 102.056537 -7.152723 -6.372258 -12.792166 -1.525050 -5.885070 12.404295 5.725839 25.623043 -31.300188 0.000000 -0.000000 0.000000 3.393114 3.255330 -39.949656 -2.230242 -3.250909 -0.390114 8.616960 -14.883172 41.092493 0.000000 -0.000000 0.000000 -4.762944 -2.362146 9.727240 2.254720 -5.227515 -5.984336 -1.320839 -3.200499 -1.936504 -0.286733 -22.340514 5.796955 19.065855 -4.291640 10.712553 -29.017307 -10.888622 -6.009352 -39.561068 -34.948590 1.490579 14.061809 5.814264 -63.742373 -12.106307 -2.332195 -21.338086 17.416080 0.443661 -13.958617 42.032036 10.728574 0.726808 -7.240463 -15.130319 -14.897500 6.510917 -12.439716 11.133099 
0.772407 0.368841 0.994978 64.588990 -0.332896 102.311706 -7.071597 -4.772114 -13.506170 -1.357924 -4.261613 10.121048 5.741751 26.620811 -29.381775 0.000000 -0.000000 0.000000 3.910004 3.485104 -38.877899 -2.978384 -5.241637 1.174851 4.374706 -16.691212 33.702929 0.000000 -0.000000 0.000000 -4.876270 -2.320267 8.442904 2.457703 -5.494986 -4.088467 -0.887368 -3.167842 -2.579859 0.262098 -24.935507 6.951474 18.871373 -6.387150 9.931434 -29.119650 -10.559580 -5.495008 -43.087496 -34.377078 2.496202 13.349542 7.815344 -64.069628 -9.082631 -0.710397 -22.671847 16.887011 1.965272 -13.835977 45.775683 12.769663 2.204614 -6.393898 -15.822983 -20.009177 3.051949 -11.042017 3.162963 
0.753148 0.372680 1.000919 59.771293 0.329729 102.506561 -6.693807 -2.534071 -13.731074 -0.974767 -2.115625 7.378528 5.666949 26.828810 -27.337452 0.000000 -0.000000 0.000000 4.588694 3.090923 -36.369662 -4.180964 -6.652721 1.211663 1.328483 -18.238500 27.168456 0.000000 -0.000000 0.000000 -4.893392 -1.813917 7.621717 2.684779 -5.533422 -3.062535 -0.342415 -2.700168 -2.876052 1.742031 -27.354692 7.758418 18.474466 -7.918575 8.422842 -28.399549 -10.175111 -4.182493 -48.700426 -34.309442 4.243026 14.456749 7.524953 -67.212145 -5.118413 1.214452 -24.969536 16.649978 3.227160 -13.576566 49.435353 14.827636 3.804658 -6.427426 -17.149660 -23.658798 -0.253700 -10.294589 -1.249027 
0.734473 0.376670 1.005401 54.711551 0.972312 102.861150 -5.882703 -0.807378 -14.269421 -0.870863 1.258418 5.075531 5.533922 26.116515 -25.547473 0.000000 -0.000000 0.000000 4.460954 2.003005 -33.621582 -4.696874 -8.944591 0.480012 -0.496533 -19.261373 22.034876 0.000000 -0.000000 0.000000 -4.694960 -1.378522 6.996184 2.988676 -5.533722 -2.582250 0.109597 -2.592395 -3.010972 3.623849 -28.115349 6.984824 17.823859 -10.726681 8.712326 -27.320892 -9.917617 -3.969605 -53.994701 -34.346690 6.659925 13.793450 8.732499 -68.615735 -3.109435 0.200758 -26.461738 16.252322 4.772200 -13.526909 53.540202 16.454275 6.645278 -6.208942 -17.708410 -26.787695 -2.297473 -8.278869 -6.604987 
0.715839 0.381122 1.007856 48.760161 1.611464 103.552398 -4.959841 0.936273 -15.391812 -1.186060 4.919188 3.379175 5.139900 26.526136 -23.806673 0.000000 -0.000000 0.000000 3.954592 0.524193 -31.990938 -5.207058 -9.810083 0.920657 -1.237737 -19.900919 19.277744 0.000000 -0.000000 0.000000 -4.686628 -0.721897 5.992721 3.562998 -5.321132 -2.479435 0.772894 -2.390679 -2.837939 5.012826 -28.590924 6.673847 16.829489 -11.442176 7.978358 -26.805235 -10.265623 -3.257997 -58.203405 -34.383101 8.662234 13.206777 8.378299 -67.882344 1.114582 0.520086 -28.595274 15.699638 6.209174 -12.785757 57.173750 19.181295 7.609593 -5.231657 -18.129520 -29.863881 -8.014437 -8.184904 -9.243033 
0.695096 0.386101 1.010020 41.070957 2.269060 104.173636 -4.191563 2.916921 -15.982044 -1.507858 9.037131 0.620845 5.642239 27.494989 -21.814952 0.000000 -0.000000 0.000000 2.098073 -1.756954 -30.188657 -5.709347 -10.861436 2.147855 -2.396245 -20.943734 18.480081 0.000000 -0.000000 0.000000 -4.648559 0.467208 4.892910 4.136062 -4.999488 -1.641439 1.179791 -1.823182 -3.187687 5.595163 -28.247829 6.307102 16.979838 -12.362292 7.954279 -26.711734 -12.556091 -1.854704 -62.236870 -34.046038 12.255587 15.213388 5.826234 -65.077249 7.131311 5.301696 -28.441424 16.671541 9.031874 -12.472143 60.340820 21.305372 9.179569 -4.303982 -18.613319 -34.504738 -15.406242 -9.327450 -11.217579 
0.678925 0.388862 1.011181 35.085851 2.649918 104.399205 -3.822427 5.245843 -16.457055 -1.712881 12.078000 -0.686649 5.817628 27.465618 -20.739222 0.000000 -0.000000 0.000000 -0.098373 -4.116049 -28.713362 -5.992498 -12.860229 3.028572 -2.060330 -21.316238 18.850324 0.000000 -0.000000 0.000000 -4.607875 1.347686 3.674787 4.872273 -4.680509 0.085437 1.422097 -1.034049 -4.046776 6.889092 -27.669804 5.417658 15.995767 -12.840688 7.830593 -25.970413 -14.030538 -1.187458 -64.318820 -34.658528 16.207005 12.826559 4.309832 -59.094782 8.599556 4.061924 -32.482888 16.737156 11.425983 -11.721646 63.356677 22.661359 11.904251 -3.288048 -18.677635 -37.342846 -18.745800 -9.063049 -18.321337 
0.662954 0.390965 1.011907 29.421339 2.966341 104.946682 -3.441823 7.164143 -17.278617 -1.853504 14.886980 -1.813132 5.974233 27.516978 -19.448137 0.000000 -0.000000 0.000000 -2.458498 -6.909330 -27.878114 -6.443658 -15.651074 3.737082 -2.028001 -21.909623 21.895552 0.000000 -0.000000 0.000000 -4.523323 2.499989 2.438693 5.656378 -4.086034 0.818279 1.775376 -0.279127 -4.365860 7.592847 -27.318754 5.561985 15.269564 -13.734582 7.020764 -24.875066 -16.283133 -0.775258 -66.721331 -34.922557 20.836960 9.909769 2.686932 -50.811695 10.402987 2.047109 -33.561261 16.428436 13.629795 -11.916013 66.057354 22.978380 13.902407 -1.749359 -18.076735 -39.126176 -20.943216 -8.279511 -22.298058 
0.646661 0.392045 1.012628 24.696826 2.684085 105.354586 -3.126782 8.319595 -17.971053 -2.473548 17.118177 -2.421954 6.646748 28.399581 -18.319766 0.000000 -0.000000 0.000000 -5.536660 -10.699220 -27.046685 -7.010391 -19.901568 4.646561 -2.045148 -23.310615 28.931281 0.000000 -0.000000 0.000000 -4.891144 3.463692 1.096443 6.648890 -3.773023 1.933542 1.882746 0.587495 -4.579634 8.078611 -27.195815 5.464425 14.569116 -13.634270 6.595510 -23.347390 -18.313361 -0.337146 -68.868682 -35.776399 26.245781 6.980882 -0.081346 -40.120738 12.622225 4.232282 -34.108568 16.530882 15.691858 -11.480026 67.611320 23.735109 15.919563 -0.094212 -16.816566 -39.168815 -24.452175 -10.877931 -25.050226 
0.630011 0.392812 1.013153 20.746814 1.918762 105.821198 -3.467768 8.963514 -18.682904 -2.388129 19.577202 -2.862465 7.131359 28.589396 -17.230645 0.000000 -0.000000 0.000000 -8.521880 -14.647802 -26.642892 -7.750396 -23.875700 5.679171 -3.492344 -24.393620 34.451651 0.000000 -0.000000 0.000000 -5.430274 4.375285 -0.046976 7.436724 -3.612871 3.158376 2.008973 1.414569 -4.911278 8.419273 -27.219398 5.209033 14.594599 -13.609311 6.170838 -22.073391 -20.442446 0.123300 -69.533574 -36.537004 31.870286 2.608182 -5.303457 -26.473139 16.168304 5.837687 -31.961819 16.459820 17.179098 -11.434743 68.676955 24.043793 18.123533 2.317913 -13.916511 -37.771696 -27.134707 -12.285925 -26.598973 
0.611547 0.392996 1.012550 17.515237 0.774865 105.657078 -3.570083 9.206699 -18.504999 -2.578019 21.408402 -3.333142 7.983467 28.909952 -16.231963 0.000000 -0.000000 0.000000 -11.631047 -17.952316 -25.698500 -8.789779 -25.802153 6.903114 -4.367932 -24.822171 37.977415 0.000000 -0.000000 0.000000 -5.910903 5.025528 -0.056449 7.849048 -3.516886 4.468123 2.039372 2.135140 -5.585616 9.587769 -26.652821 4.497598 14.223091 -13.649865 6.146322 -20.905398 -21.973581 0.631113 -68.994073 -37.141665 35.292569 -1.695939 -12.820804 -19.018373 18.125412 6.213040 -30.758740 16.957701 18.866962 -10.613699 68.800563 24.257725 20.323902 4.463796 -9.408159 -35.705780 -26.438890 -12.790229 -26.734455 
0.590402 0.392655 1.009951 14.325166 -0.426583 105.398873 -3.383357 9.535698 -17.920656 -3.199857 23.920264 -4.180946 8.624147 29.000776 -15.229668 0.000000 -0.000000 0.000000 -14.233208 -20.611124 -25.531202 -8.957295 -27.411925 8.849916 -5.006787 -24.577612 40.044472 0.000000 -0.000000 0.000000 -6.784882 5.752230 0.522374 8.356594 -2.964176 4.449609 2.590183 1.978288 -5.166385 10.433037 -25.815966 4.075105 13.919975 -13.234858 6.090073 -20.048628 -21.484478 -0.847318 -68.095935 -35.973893 37.586315 -7.014055 -23.430991 -17.422915 18.322438 3.472959 -35.590766 18.132124 19.741880 -11.152818 67.115078 23.698811 22.916020 9.206682 -2.681524 -34.667075 -20.991311 -10.878760 -30.356832 
0.567166 0.391864 1.007321 10.823031 -1.036503 105.341370 -2.782855 11.307953 -17.642330 -3.794078 26.214624 -4.608107 8.700196 28.740493 -14.602343 0.000000 -0.000000 0.000000 -14.939295 -22.036526 -26.700333 -9.064649 -27.137618 11.388364 -5.225192 -24.489365 40.949312 0.000000 -0.000000 0.000000 -7.287977 6.366279 0.844825 9.302331 -2.357126 5.611544 3.113633 1.950148 -5.668515 11.392248 -24.927793 2.903784 12.922028 -11.977303 6.865364 -21.756746 -19.849489 -0.554609 -63.325317 -35.090268 37.153546 -13.582834 -36.530128 -13.202770 11.348668 1.049728 -41.976134 20.956719 20.111410 -9.774410 63.374433 24.987207 24.796488 13.698522 3.792607 -31.922718 -15.724200 -11.290187 -34.380656 
